<svg width="17" height="21" viewBox="0 0 17 21" fill="none" xmlns="http://www.w3.org/2000/svg">
<path d="M15 2.25H12.75V1.5C12.75 1.10218 12.592 0.720644 12.3107 0.43934C12.0294 0.158035 11.6478 0 11.25 0H5.25C4.85218 0 4.47064 0.158035 4.18934 0.43934C3.90804 0.720644 3.75 1.10218 3.75 1.5V2.25H1.5C1.10218 2.25 0.720644 2.40804 0.43934 2.68934C0.158035 2.97064 0 3.35218 0 3.75V19.5C0 19.8978 0.158035 20.2794 0.43934 20.5607C0.720644 20.842 1.10218 21 1.5 21H15C15.3978 21 15.7794 20.842 16.0607 20.5607C16.342 20.2794 16.5 19.8978 16.5 19.5V3.75C16.5 3.35218 16.342 2.97064 16.0607 2.68934C15.7794 2.40804 15.3978 2.25 15 2.25ZM5.25 1.5H11.25V4.5H5.25V1.5ZM15 19.5H1.5V3.75H3.75V6H12.75V3.75H15V19.5Z" fill="black"/>
</svg>
